<?xml version="1.0" encoding="utf-8"?>
<!-- Generator: Adobe Illustrator 26.0.2, SVG Export Plug-In . SVG Version: 6.00 Build 0)  -->
<svg version="1.1" id="Layer_1" xmlns="http://www.w3.org/2000/svg" xmlns:xlink="http://www.w3.org/1999/xlink" x="0px" y="0px"
	 viewBox="0 0 593.12 583.2" style="enable-background:new 0 0 593.12 583.2;" xml:space="preserve">
<style type="text/css">
	.st0{font-family:'Helvetica';}
	.st1{font-size:18px;}
	.st2{fill:#FFFFFF;stroke:#000000;stroke-miterlimit:10;}
	.st3{stroke:#000000;stroke-miterlimit:10;}
	.st4{fill:none;stroke:#000000;stroke-miterlimit:10;}
	.st5{font-family:'Helvetica-Oblique';}
	.st6{fill:#ED1C24;}
	.st7{fill:#00AEEF;}
	.st8{fill:#2E3192;stroke:#ED1C24;stroke-miterlimit:10;}
	.st9{fill:#00AEEF;stroke:#00AEEF;stroke-miterlimit:10;}
	.st10{fill:#27AAE1;}
	.st11{fill:none;stroke:#000000;stroke-width:0.5;stroke-miterlimit:10;}
	.st12{font-size:20.0284px;}
	.st13{fill:#2E3192;stroke:#27AAE1;stroke-miterlimit:10;}
	.st14{font-family:'Helvetica-Bold';}
</style>
<text transform="matrix(1 0 0 1 24.2 64.9128)" class="st0 st1">mode of vibration</text>
<text transform="matrix(1 0 0 1 24.2004 155.9012)" class="st0 st1">dipole moment</text>
<g>
	<g>
		<circle cx="204.69" cy="27.66" r="6.66"/>
	</g>
	<circle cx="204.69" cy="91.09" r="6.66"/>
	<circle class="st2" cx="204.69" cy="59.37" r="6.66"/>
	<line class="st3" x1="204.69" y1="27.66" x2="204.69" y2="52.71"/>
	<line class="st3" x1="204.69" y1="91.09" x2="204.69" y2="66.03"/>
</g>
<g>
	<ellipse cx="204.69" cy="147.62" rx="4.66" ry="4.74"/>
</g>
<g>
	<circle cx="234.45" cy="23.66" r="6.66"/>
	<circle cx="234.45" cy="95.09" r="6.66"/>
	<circle class="st2" cx="234.45" cy="59.37" r="6.66"/>
	<line class="st3" x1="234.45" y1="27.66" x2="234.45" y2="52.71"/>
	<line class="st3" x1="234.45" y1="91.09" x2="234.45" y2="66.03"/>
</g>
<g>
	<circle cx="262.54" cy="19.66" r="6.66"/>
	<circle cx="262.54" cy="99.09" r="6.66"/>
	<circle class="st2" cx="262.54" cy="59.37" r="6.66"/>
	<line class="st3" x1="262.54" y1="21" x2="262.54" y2="52.71"/>
	<line class="st3" x1="262.54" y1="97.74" x2="262.54" y2="66.03"/>
</g>
<g>
	<circle cx="330.34" cy="27.17" r="6.66"/>
	<circle cx="330.34" cy="90.6" r="6.66"/>
	<circle class="st2" cx="330.34" cy="47.88" r="6.66"/>
	<line class="st3" x1="330.34" y1="27.17" x2="330.34" y2="41.22"/>
	<line class="st3" x1="330.34" y1="90.6" x2="330.34" y2="54.54"/>
</g>
<g>
	<circle cx="361.24" cy="23.17" r="6.66"/>
	<circle cx="361.24" cy="94.6" r="6.66"/>
	<circle class="st2" cx="361.24" cy="58.88" r="6.66"/>
	<line class="st3" x1="361.24" y1="27.17" x2="361.24" y2="52.22"/>
	<line class="st3" x1="361.24" y1="90.6" x2="361.24" y2="65.54"/>
</g>
<g>
	<circle cx="395.65" cy="90.6" r="6.66"/>
	<circle cx="395.65" cy="27.17" r="6.66"/>
	<circle class="st2" cx="395.65" cy="69.88" r="6.66"/>
	<line class="st3" x1="395.65" y1="90.6" x2="395.65" y2="76.54"/>
	<line class="st3" x1="395.65" y1="27.17" x2="395.65" y2="63.22"/>
</g>
<g>
	<line x1="330.34" y1="129.59" x2="330.34" y2="165.65"/>
	<g>
		<line class="st4" x1="330.34" y1="130.09" x2="330.34" y2="162.09"/>
		<g>
			<rect x="327.09" y="129.59" width="6.5" height="1"/>
		</g>
		<g>
			<path d="M330.34,161.69c1.04-1.04,3.11-1.54,4.54-1.58c-1.92,1.43-3.6,3.29-4.54,5.55c-0.9-2.25-2.68-4.03-4.54-5.55
				C327.33,160.23,329.2,160.6,330.34,161.69z"/>
		</g>
	</g>
</g>
<g>
	<circle cx="508.02" cy="22.73" r="6.66"/>
	<circle cx="508.02" cy="86.16" r="6.66"/>
	<circle class="st2" cx="508.02" cy="54.45" r="6.66"/>
	<line class="st3" x1="508.02" y1="22.73" x2="508.02" y2="47.79"/>
	<line class="st3" x1="508.02" y1="86.16" x2="508.02" y2="61.11"/>
</g>
<g>
	<circle cx="459.83" cy="28.66" r="6.66"/>
	<circle cx="459.83" cy="80.24" r="6.66"/>
	<circle class="st2" cx="482.01" cy="53.72" r="6.66"/>
	<line class="st3" x1="464.61" y1="29.03" x2="482.01" y2="47.06"/>
	<line class="st3" x1="464.61" y1="78.41" x2="482.01" y2="60.39"/>
</g>
<g>
	<circle cx="556.58" cy="28.66" r="6.66"/>
	<circle cx="556.58" cy="80.24" r="6.66"/>
	<circle class="st2" cx="534.4" cy="53.72" r="6.66"/>
	<line class="st3" x1="551.81" y1="29.03" x2="534.4" y2="47.06"/>
	<line class="st3" x1="551.81" y1="78.41" x2="534.4" y2="60.39"/>
</g>
<g>
	<ellipse cx="234.45" cy="147.62" rx="4.66" ry="4.74"/>
</g>
<g>
	<ellipse cx="262.54" cy="147.62" rx="4.66" ry="4.74"/>
</g>
<g>
	<ellipse cx="361.24" cy="147.62" rx="4.66" ry="4.74"/>
</g>
<g>
	<ellipse cx="508.02" cy="147.62" rx="4.66" ry="4.74"/>
</g>
<g>
	<line x1="395.65" y1="165.65" x2="395.65" y2="129.59"/>
	<g>
		<line class="st4" x1="395.65" y1="165.15" x2="395.65" y2="133.15"/>
		<g>
			<rect x="392.4" y="164.65" width="6.5" height="1"/>
		</g>
		<g>
			<path d="M395.65,133.55c-1.04,1.04-3.11,1.54-4.54,1.58c1.92-1.43,3.6-3.29,4.54-5.55c0.9,2.25,2.68,4.03,4.54,5.55
				C398.66,135.02,396.8,134.64,395.65,133.55z"/>
		</g>
	</g>
</g>
<g>
	<line x1="488.95" y1="147.62" x2="452.89" y2="147.62"/>
	<g>
		<line class="st4" x1="488.45" y1="147.62" x2="456.45" y2="147.62"/>
		<g>
			<rect x="487.95" y="144.37" width="1" height="6.5"/>
		</g>
		<g>
			<path d="M456.86,147.62c1.04,1.04,1.54,3.11,1.58,4.54c-1.43-1.92-3.29-3.6-5.55-4.54c2.25-0.9,4.03-2.68,5.55-4.54
				C458.32,144.61,457.94,146.47,456.86,147.62z"/>
		</g>
	</g>
</g>
<g>
	<line x1="527.47" y1="147.62" x2="563.52" y2="147.62"/>
	<g>
		<line class="st4" x1="527.97" y1="147.62" x2="559.96" y2="147.62"/>
		<g>
			<rect x="527.47" y="144.37" width="1" height="6.5"/>
		</g>
		<g>
			<path d="M559.56,147.62c-1.04-1.04-1.54-3.11-1.58-4.54c1.43,1.92,3.29,3.6,5.55,4.54c-2.25,0.9-4.03,2.68-5.55,4.54
				C558.1,150.63,558.48,148.77,559.56,147.62z"/>
		</g>
	</g>
</g>
<text transform="matrix(1 0 0 1 24.2 233.1427)"><tspan x="0" y="0" class="st0 st1">variation of dipol</tspan><tspan x="0" y="21.6" class="st0 st1">moment along </tspan><tspan x="119.07" y="21.6" class="st5 st1">Q</tspan></text>
<g>
	<line x1="188.03" y1="249.14" x2="280.58" y2="249.14"/>
	<g>
		<line class="st4" x1="188.03" y1="249.14" x2="274.55" y2="249.14"/>
		<g>
			<path d="M280.58,249.14c-2.84,1.05-6.36,2.85-8.55,4.76l1.72-4.76l-1.72-4.75C274.22,246.29,277.74,248.09,280.58,249.14z"/>
		</g>
	</g>
</g>
<g>
	<line x1="233.82" y1="269.27" x2="233.82" y2="197.01"/>
	<g>
		<line class="st4" x1="233.82" y1="269.27" x2="233.82" y2="203.05"/>
		<g>
			<path d="M233.82,197.01c1.05,2.84,2.85,6.36,4.76,8.55l-4.76-1.72l-4.75,1.72C230.97,203.38,232.76,199.85,233.82,197.01z"/>
		</g>
	</g>
</g>
<g>
	<ellipse cx="205.03" cy="249.14" rx="4.66" ry="4.74"/>
</g>
<g>
	<ellipse cx="234.31" cy="249.14" rx="4.66" ry="4.74"/>
</g>
<g>
	<ellipse cx="261.87" cy="249.14" rx="4.66" ry="4.74"/>
</g>
<g>
	<line x1="315.47" y1="249.14" x2="408.02" y2="249.14"/>
	<g>
		<line class="st4" x1="315.47" y1="249.14" x2="401.99" y2="249.14"/>
		<g>
			<path d="M408.02,249.14c-2.84,1.05-6.36,2.85-8.55,4.76l1.72-4.76l-1.72-4.75C401.66,246.29,405.18,248.09,408.02,249.14z"/>
		</g>
	</g>
</g>
<g>
	<line x1="361.25" y1="269.27" x2="361.25" y2="197.01"/>
	<g>
		<line class="st4" x1="361.25" y1="269.27" x2="361.25" y2="203.05"/>
		<g>
			<path d="M361.25,197.01c1.05,2.84,2.85,6.36,4.76,8.55l-4.76-1.72l-4.75,1.72C358.4,203.38,360.2,199.85,361.25,197.01z"/>
		</g>
	</g>
</g>
<g>
	<ellipse cx="332.47" cy="283.27" rx="4.66" ry="4.74"/>
</g>
<g>
	<ellipse cx="361.75" cy="249.14" rx="4.66" ry="4.74"/>
</g>
<g>
	<ellipse cx="391.31" cy="211.37" rx="4.66" ry="4.74"/>
</g>
<path class="st4" d="M333.1,279.19c2.82-7.71,11.68-16.62,29.28-34.13c20.44-20.33,26.77-26.59,29.56-37.77"/>
<g>
	<line x1="459.64" y1="248.11" x2="552.19" y2="248.11"/>
	<g>
		<line class="st4" x1="459.64" y1="248.11" x2="546.15" y2="248.11"/>
		<g>
			<path d="M552.19,248.11c-2.84,1.05-6.36,2.85-8.55,4.76l1.72-4.76l-1.72-4.75C545.82,245.26,549.35,247.06,552.19,248.11z"/>
		</g>
	</g>
</g>
<g>
	<line x1="505.42" y1="268.24" x2="505.42" y2="195.98"/>
	<g>
		<line class="st4" x1="505.42" y1="268.24" x2="505.42" y2="202.02"/>
		<g>
			<path d="M505.42,195.98c1.05,2.84,2.85,6.36,4.76,8.55l-4.76-1.72l-4.75,1.72C502.57,202.34,504.37,198.82,505.42,195.98z"/>
		</g>
	</g>
</g>
<g>
	<ellipse cx="531.45" cy="282.24" rx="4.66" ry="4.74"/>
</g>
<g>
	<ellipse cx="505.91" cy="248.11" rx="4.66" ry="4.74"/>
</g>
<g>
	<ellipse cx="471.98" cy="206.25" rx="4.66" ry="4.74"/>
</g>
<path class="st4" d="M530.82,278.15c-2.82-7.71-11.68-16.62-29.28-34.13c-20.44-20.33-26.77-26.59-29.56-37.77"/>
<text transform="matrix(1 0 0 1 268.5229 269.2704)" class="st5 st1">Q</text>
<text transform="matrix(1 0 0 1 395.9614 270.2961)" class="st5 st1">Q</text>
<text transform="matrix(1 0 0 1 545.5316 268.2366)" class="st5 st1">Q</text>
<text transform="matrix(1 0 0 1 357.0902 192.038)" class="st0 st1">µ</text>
<text transform="matrix(1 0 0 1 501.3981 189.6797)" class="st0 st1">µ</text>
<text transform="matrix(1 0 0 1 228.4209 193.3878)" class="st0 st1">µ</text>
<text transform="matrix(1 0 0 1 185.5011 315.4513)" class="st5 st1">∂µ/∂Q |</text>
<text transform="matrix(0.583 0 0 0.583 242.3399 321.4455)" class="st5 st1">Q=0 </text>
<text transform="matrix(1 0 0 1 265.3824 315.4513)" class="st6 st5 st1">= 0</text>
<text transform="matrix(1 0 0 1 324.4966 316.1719)" class="st5 st1">∂µ/∂Q |</text>
<text transform="matrix(0.583 0 0 0.583 381.3355 322.166)" class="st5 st1">Q=0 </text>
<text transform="matrix(1 0 0 1 404.378 316.1719)" class="st7 st5 st1">≠ 0</text>
<text transform="matrix(1 0 0 1 464.7226 316.7612)" class="st5 st1">∂µ/∂Q |</text>
<text transform="matrix(0.583 0 0 0.583 521.5614 322.7553)" class="st5 st1">Q=0 </text>
<text transform="matrix(1 0 0 1 544.6039 316.7612)" class="st7 st5 st1">≠ 0</text>
<line class="st8" x1="214.34" y1="249.14" x2="252.56" y2="249.14"/>
<line class="st9" x1="347.06" y1="260.23" x2="373.45" y2="232.59"/>
<line class="st9" x1="491.56" y1="234.96" x2="519.28" y2="261.26"/>
<text transform="matrix(1 0 0 1 196.2675 342.9547)"><tspan x="0" y="0" class="st5 st1">IR </tspan><tspan x="23" y="0" class="st6 st5 st1">inactive</tspan></text>
<text transform="matrix(1 0 0 1 337.1265 342.955)"><tspan x="0" y="0" class="st5 st1">IR </tspan><tspan x="23" y="0" class="st10 st5 st1">active</tspan></text>
<text transform="matrix(1 0 0 1 475.3573 342.9548)"><tspan x="0" y="0" class="st5 st1">IR </tspan><tspan x="23" y="0" class="st10 st5 st1">active</tspan></text>
<line class="st3" x1="7.92" y1="118.42" x2="668.15" y2="118.42"/>
<line class="st3" x1="-16.06" y1="356.71" x2="644.17" y2="356.71"/>
<text transform="matrix(1 0 0 1 24.2003 384.6827)"><tspan x="0" y="0" class="st0 st1">polarization</tspan><tspan x="0" y="21.6" class="st0 st1">ellipsoid</tspan></text>
<g>
	<g>
		<ellipse class="st4" cx="319.58" cy="398.9" rx="8.22" ry="18.7"/>
		<g>
			<line x1="319.58" y1="422.23" x2="319.58" y2="373.37"/>
			<g>
				<line class="st11" x1="319.58" y1="422.23" x2="319.58" y2="373.95"/>
				<g>
					<polygon points="320.43,374.94 319.58,374.09 318.73,374.94 318.73,374.22 319.58,373.37 320.43,374.22 					"/>
				</g>
			</g>
		</g>
		<g>
			<line x1="306.91" y1="399.64" x2="342.54" y2="399.64"/>
			<g>
				<line class="st11" x1="306.91" y1="399.64" x2="341.97" y2="399.64"/>
				<g>
					<polygon points="340.98,400.48 341.82,399.64 340.98,398.79 341.69,398.79 342.54,399.64 341.69,400.48 					"/>
				</g>
			</g>
		</g>
		<g>
			<line x1="334.76" y1="390.5" x2="303.76" y2="409.12"/>
			<g>
				<line class="st11" x1="334.76" y1="390.5" x2="304.25" y2="408.83"/>
				<g>
					<polygon points="304.67,407.59 304.38,408.75 305.54,409.04 304.93,409.41 303.76,409.12 304.05,407.96 					"/>
				</g>
			</g>
		</g>
	</g>
	<g>
		<ellipse class="st4" cx="363.65" cy="399.4" rx="5.29" ry="13.74"/>
		<g>
			<line x1="346.94" y1="399.64" x2="382.57" y2="399.64"/>
			<g>
				<line class="st11" x1="346.94" y1="399.64" x2="382" y2="399.64"/>
				<g>
					<polygon points="381,400.48 381.85,399.64 381,398.79 381.72,398.79 382.57,399.64 381.72,400.48 					"/>
				</g>
			</g>
		</g>
		<g>
			<g>
				<line x1="363.6" y1="422.23" x2="363.6" y2="373.37"/>
				<g>
					<line class="st11" x1="363.6" y1="422.23" x2="363.6" y2="373.95"/>
					<g>
						<polygon points="364.45,374.94 363.6,374.09 362.75,374.94 362.75,374.22 363.6,373.37 364.45,374.22 						"/>
					</g>
				</g>
			</g>
			<g>
				<line x1="377.04" y1="391.54" x2="346.05" y2="410.17"/>
				<g>
					<line class="st11" x1="377.04" y1="391.54" x2="346.54" y2="409.87"/>
					<g>
						<polygon points="346.95,408.63 346.66,409.8 347.83,410.09 347.21,410.46 346.05,410.17 346.34,409 						"/>
					</g>
				</g>
			</g>
		</g>
	</g>
	<g>
		<ellipse class="st4" cx="405.43" cy="398.9" rx="8.22" ry="18.7"/>
		<g>
			<line x1="405.6" y1="422.23" x2="405.6" y2="373.37"/>
			<g>
				<line class="st11" x1="405.6" y1="422.23" x2="405.6" y2="373.95"/>
				<g>
					<polygon points="406.45,374.94 405.6,374.09 404.76,374.94 404.76,374.22 405.6,373.37 406.45,374.22 					"/>
				</g>
			</g>
		</g>
		<g>
			<line x1="386.75" y1="399.64" x2="422.38" y2="399.64"/>
			<g>
				<line class="st11" x1="386.75" y1="399.64" x2="421.81" y2="399.64"/>
				<g>
					<polygon points="420.81,400.48 421.66,399.64 420.81,398.79 421.53,398.79 422.38,399.64 421.53,400.48 					"/>
				</g>
			</g>
		</g>
		<g>
			<line x1="417.19" y1="392.66" x2="386.19" y2="411.28"/>
			<g>
				<line class="st11" x1="417.19" y1="392.66" x2="386.68" y2="410.99"/>
				<g>
					<polygon points="387.1,409.75 386.81,410.91 387.97,411.2 387.36,411.57 386.19,411.28 386.48,410.12 					"/>
				</g>
			</g>
		</g>
	</g>
</g>
<g>
	<g>
		<ellipse class="st4" cx="176.6" cy="398.9" rx="4.22" ry="18.7"/>
		<g>
			<line x1="176.62" y1="422.23" x2="176.62" y2="373.37"/>
			<g>
				<line class="st11" x1="176.62" y1="422.23" x2="176.62" y2="373.95"/>
				<g>
					<polygon points="177.47,374.94 176.62,374.09 175.77,374.94 175.77,374.22 176.62,373.37 177.47,374.22 					"/>
				</g>
			</g>
		</g>
		<g>
			<line x1="163.95" y1="399.64" x2="199.58" y2="399.64"/>
			<g>
				<line class="st11" x1="163.95" y1="399.64" x2="199.01" y2="399.64"/>
				<g>
					<polygon points="198.02,400.48 198.87,399.64 198.02,398.79 198.74,398.79 199.58,399.64 198.74,400.48 					"/>
				</g>
			</g>
		</g>
		<g>
			<line x1="191.8" y1="390.5" x2="160.8" y2="409.12"/>
			<g>
				<line class="st11" x1="191.8" y1="390.5" x2="161.29" y2="408.83"/>
				<g>
					<polygon points="161.71,407.59 161.42,408.75 162.58,409.04 161.97,409.41 160.8,409.12 161.09,407.96 					"/>
				</g>
			</g>
		</g>
	</g>
	<g>
		<ellipse class="st4" cx="219.76" cy="399.91" rx="6.78" ry="14.4"/>
		<g>
			<line x1="202.98" y1="399.64" x2="238.61" y2="399.64"/>
			<g>
				<line class="st11" x1="202.98" y1="399.64" x2="238.04" y2="399.64"/>
				<g>
					<polygon points="237.05,400.48 237.89,399.64 237.05,398.79 237.77,398.79 238.61,399.64 237.77,400.48 					"/>
				</g>
			</g>
		</g>
		<g>
			<g>
				<line x1="219.64" y1="422.23" x2="219.64" y2="373.37"/>
				<g>
					<line class="st11" x1="219.64" y1="422.23" x2="219.64" y2="373.95"/>
					<g>
						<polygon points="220.49,374.94 219.64,374.09 218.8,374.94 218.8,374.22 219.64,373.37 220.49,374.22 						"/>
					</g>
				</g>
			</g>
			<g>
				<line x1="233.08" y1="391.54" x2="202.09" y2="410.17"/>
				<g>
					<line class="st11" x1="233.08" y1="391.54" x2="202.58" y2="409.87"/>
					<g>
						<polygon points="202.99,408.63 202.7,409.8 203.87,410.09 203.25,410.46 202.09,410.17 202.38,409 						"/>
					</g>
				</g>
			</g>
		</g>
	</g>
	<g>
		<ellipse class="st4" cx="263.47" cy="399.81" rx="8.22" ry="10.13"/>
		<g>
			<line x1="263.65" y1="422.23" x2="263.65" y2="373.37"/>
			<g>
				<line class="st11" x1="263.65" y1="422.23" x2="263.65" y2="373.95"/>
				<g>
					<polygon points="264.49,374.94 263.65,374.09 262.8,374.94 262.8,374.22 263.65,373.37 264.49,374.22 					"/>
				</g>
			</g>
		</g>
		<g>
			<line x1="244.79" y1="399.64" x2="280.42" y2="399.64"/>
			<g>
				<line class="st11" x1="244.79" y1="399.64" x2="279.85" y2="399.64"/>
				<g>
					<polygon points="278.86,400.48 279.7,399.64 278.86,398.79 279.57,398.79 280.42,399.64 279.57,400.48 					"/>
				</g>
			</g>
		</g>
		<g>
			<line x1="275.23" y1="392.66" x2="244.24" y2="411.28"/>
			<g>
				<line class="st11" x1="275.23" y1="392.66" x2="244.73" y2="410.99"/>
				<g>
					<polygon points="245.14,409.75 244.85,410.91 246.02,411.2 245.4,411.57 244.24,411.28 244.53,410.12 					"/>
				</g>
			</g>
		</g>
	</g>
</g>
<g>
	<g>
		<ellipse class="st4" cx="456.97" cy="400.27" rx="8.22" ry="9.82"/>
		<g>
			<line x1="456.97" y1="422.23" x2="456.97" y2="373.37"/>
			<g>
				<line class="st11" x1="456.97" y1="422.23" x2="456.97" y2="373.95"/>
				<g>
					<polygon points="457.81,374.94 456.97,374.09 456.12,374.94 456.12,374.22 456.97,373.37 457.81,374.22 					"/>
				</g>
			</g>
		</g>
		<g>
			<line x1="444.3" y1="399.64" x2="479.93" y2="399.64"/>
			<g>
				<line class="st11" x1="444.3" y1="399.64" x2="479.36" y2="399.64"/>
				<g>
					<polygon points="478.36,400.48 479.21,399.64 478.36,398.79 479.08,398.79 479.93,399.64 479.08,400.48 					"/>
				</g>
			</g>
		</g>
		<g>
			<line x1="472.15" y1="390.5" x2="441.15" y2="409.12"/>
			<g>
				<line class="st11" x1="472.15" y1="390.5" x2="441.64" y2="408.83"/>
				<g>
					<polygon points="442.06,407.59 441.77,408.75 442.93,409.04 442.31,409.41 441.15,409.12 441.44,407.96 					"/>
				</g>
			</g>
		</g>
	</g>
	<g>
		<ellipse class="st4" cx="504.87" cy="399.4" rx="3.47" ry="13.74"/>
		<g>
			<line x1="488.33" y1="399.64" x2="523.96" y2="399.64"/>
			<g>
				<line class="st11" x1="488.33" y1="399.64" x2="523.39" y2="399.64"/>
				<g>
					<polygon points="522.39,400.48 523.24,399.64 522.39,398.79 523.11,398.79 523.96,399.64 523.11,400.48 					"/>
				</g>
			</g>
		</g>
		<g>
			<g>
				<line x1="504.99" y1="422.23" x2="504.99" y2="373.37"/>
				<g>
					<line class="st11" x1="504.99" y1="422.23" x2="504.99" y2="373.95"/>
					<g>
						<polygon points="505.84,374.94 504.99,374.09 504.14,374.94 504.14,374.22 504.99,373.37 505.84,374.22 						"/>
					</g>
				</g>
			</g>
			<g>
				<line x1="518.43" y1="391.54" x2="487.43" y2="410.17"/>
				<g>
					<line class="st11" x1="518.43" y1="391.54" x2="487.92" y2="409.87"/>
					<g>
						<polygon points="488.34,408.63 488.05,409.8 489.21,410.09 488.6,410.46 487.43,410.17 487.72,409 						"/>
					</g>
				</g>
			</g>
		</g>
	</g>
	<g>
		<ellipse class="st4" cx="549.82" cy="399.2" rx="8.22" ry="9.8"/>
		<g>
			<line x1="549.99" y1="422.23" x2="549.99" y2="373.37"/>
			<g>
				<line class="st11" x1="549.99" y1="422.23" x2="549.99" y2="373.95"/>
				<g>
					<polygon points="550.84,374.94 549.99,374.09 549.14,374.94 549.14,374.22 549.99,373.37 550.84,374.22 					"/>
				</g>
			</g>
		</g>
		<g>
			<line x1="531.14" y1="399.64" x2="566.77" y2="399.64"/>
			<g>
				<line class="st11" x1="531.14" y1="399.64" x2="566.2" y2="399.64"/>
				<g>
					<polygon points="565.2,400.48 566.05,399.64 565.2,398.79 565.92,398.79 566.77,399.64 565.92,400.48 					"/>
				</g>
			</g>
		</g>
		<g>
			<line x1="561.58" y1="392.66" x2="530.58" y2="411.28"/>
			<g>
				<line class="st11" x1="561.58" y1="392.66" x2="531.07" y2="410.99"/>
				<g>
					<polygon points="531.49,409.75 531.2,410.91 532.36,411.2 531.74,411.57 530.58,411.28 530.87,410.12 					"/>
				</g>
			</g>
		</g>
	</g>
</g>
<text transform="matrix(1 0 0 1 294.3275 571.4299)"><tspan x="0" y="0" class="st5 st1">Raman </tspan><tspan x="63.03" y="0" class="st6 st5 st1">inactive</tspan></text>
<text transform="matrix(1 0 0 1 163.955 571.4304)"><tspan x="0" y="0" class="st5 st1">Raman </tspan><tspan x="63.03" y="0" class="st10 st5 st1">active</tspan></text>
<text transform="matrix(1 0 0 1 452.8936 571.4299)"><tspan x="0" y="0" class="st5 st1">Raman </tspan><tspan x="63.03" y="0" class="st6 st5 st1">inactive</tspan></text>
<text transform="matrix(1 0 0 1 167.3018 544.0801)" class="st5 st1">∂ɑ/∂Q |</text>
<text transform="matrix(0.583 0 0 0.583 224.3341 550.0743)" class="st5 st1">Q=0 </text>
<text transform="matrix(1 0 0 1 247.3766 544.0801)" class="st7 st5 st1">≠ 0</text>
<text transform="matrix(1 0 0 1 306.2974 544.08)" class="st5 st1">∂ɑ/∂Q |</text>
<text transform="matrix(0.583 0 0 0.583 363.3297 550.0741)" class="st5 st1">Q=0 </text>
<text transform="matrix(1 0 0 1 386.3721 544.08)" class="st6 st5 st1">= 0</text>
<text transform="matrix(1 0 0 1 446.5233 544.0799)" class="st5 st1">∂ɑ/∂Q |</text>
<text transform="matrix(0.583 0 0 0.583 503.5556 550.074)" class="st5 st1">Q=0 </text>
<text transform="matrix(1 0 0 1 526.598 544.0799)" class="st6 st5 st1">= 0</text>
<g>
	<g>
		<line x1="313.98" y1="462.9" x2="406.53" y2="462.9"/>
		<g>
			<line class="st4" x1="313.98" y1="462.9" x2="400.49" y2="462.9"/>
			<g>
				<path d="M406.53,462.9c-2.84,1.05-6.36,2.85-8.55,4.76l1.72-4.76l-1.72-4.75C400.17,460.04,403.69,461.84,406.53,462.9z"/>
			</g>
		</g>
	</g>
	<g>
		<line x1="359.76" y1="514.02" x2="359.76" y2="441.77"/>
		<g>
			<line class="st4" x1="359.76" y1="514.02" x2="359.76" y2="447.8"/>
			<g>
				<path d="M359.76,441.77c1.05,2.84,2.85,6.36,4.76,8.55l-4.76-1.72l-4.75,1.72C356.91,448.13,358.71,444.61,359.76,441.77z"/>
			</g>
		</g>
	</g>
	<g>
		<ellipse cx="330.98" cy="496.83" rx="4.66" ry="4.74"/>
	</g>
	<g>
		<ellipse cx="360.25" cy="461.9" rx="4.66" ry="4.74"/>
	</g>
	<g>
		<ellipse cx="391.31" cy="496.83" rx="4.66" ry="4.74"/>
	</g>
	<text transform="matrix(0.8987 0 0 1 407.5586 470.2227)" class="st5 st12">Q</text>
	<text transform="matrix(1 0 0 1 354.3679 438.1405)" class="st5 st1">ɑ</text>
	<path class="st4" d="M330.98,500.94L330.98,500.94c-2.46-20.71,12.57-37.63,28.11-38.56c16.61-1,34.55,16.19,32.21,38.56l0,0"/>
	<line class="st8" x1="340.29" y1="462.9" x2="378.5" y2="462.9"/>
</g>
<g>
	<g>
		<line x1="459.87" y1="493.74" x2="552.42" y2="493.74"/>
		<g>
			<line class="st4" x1="459.87" y1="493.74" x2="546.38" y2="493.74"/>
			<g>
				<path d="M552.42,493.74c-2.84,1.05-6.36,2.85-8.55,4.76l1.72-4.76l-1.72-4.75C546.05,490.89,549.58,492.69,552.42,493.74z"/>
			</g>
		</g>
	</g>
	<g>
		<line x1="504.24" y1="511.58" x2="504.24" y2="439.33"/>
		<g>
			<line class="st4" x1="504.24" y1="511.58" x2="504.24" y2="445.36"/>
			<g>
				<path d="M504.24,439.33c1.05,2.84,2.85,6.36,4.76,8.55l-4.76-1.72l-4.75,1.72C501.38,445.69,503.18,442.17,504.24,439.33z"/>
			</g>
		</g>
	</g>
	<g>
		<ellipse cx="476.11" cy="458.8" rx="4.66" ry="4.74"/>
	</g>
	<g>
		<ellipse cx="504.73" cy="493.74" rx="4.66" ry="4.74"/>
	</g>
	<g>
		<ellipse cx="535.1" cy="458.8" rx="4.66" ry="4.74"/>
	</g>
	<text transform="matrix(1 0 0 1 555.7003 500.2535)" class="st5 st1">Q</text>
	<text transform="matrix(1 0 0 1 497.0114 438.1403)" class="st5 st1">ɑ</text>
	<line class="st8" x1="484.76" y1="493.74" x2="522.97" y2="493.74"/>
	<path class="st4" d="M475.29,454.5L475.29,454.5c-2.46,20.71,12.57,37.63,28.11,38.56c16.61,1,34.55-16.19,32.21-38.56l0,0"/>
</g>
<g>
	<g>
		<line x1="173.37" y1="485.86" x2="265.92" y2="485.86"/>
		<g>
			<line class="st4" x1="173.37" y1="485.86" x2="259.88" y2="485.86"/>
			<g>
				<path d="M265.92,485.86c-2.84,1.05-6.36,2.85-8.55,4.76l1.72-4.76l-1.72-4.75C259.56,483.01,263.08,484.8,265.92,485.86z"/>
			</g>
		</g>
	</g>
	<g>
		<line x1="219.15" y1="515.98" x2="219.15" y2="443.73"/>
		<g>
			<line class="st4" x1="219.15" y1="515.98" x2="219.15" y2="449.76"/>
			<g>
				<path d="M219.15,443.73c1.05,2.84,2.85,6.36,4.76,8.55l-4.76-1.72l-4.75,1.72C216.3,450.09,218.1,446.57,219.15,443.73z"/>
			</g>
		</g>
	</g>
	<g>
		<ellipse cx="191.8" cy="515.98" rx="4.66" ry="4.74"/>
	</g>
	<g>
		<ellipse cx="219.64" cy="486.86" rx="4.66" ry="4.74"/>
	</g>
	<g>
		<ellipse cx="250.69" cy="457.29" rx="4.66" ry="4.74"/>
	</g>
	<text transform="matrix(1 0 0 1 266.5225 492.6747)" class="st5 st1">Q</text>
	<text transform="matrix(1 0 0 1 213.7569 440.1013)" class="st5 st1">ɑ</text>
	<line class="st13" x1="200.25" y1="490.72" x2="241.18" y2="480.99"/>
	<path class="st4" d="M191.03,517.05c0.51-2.55,1.47-6.13,3.42-10.08c0,0,3.34-6.76,9.16-12.11c12.84-11.83,27.43-6.4,38.13-16.36
		c3.85-3.58,8.07-9.96,8.95-22.2"/>
</g>
<text transform="matrix(1 0 0 1 24.2003 477.8955)"><tspan x="0" y="0" class="st0 st1">polarization</tspan><tspan x="0" y="21.6" class="st0 st1">change</tspan></text>
<text transform="matrix(6.123234e-17 -1 1 6.123234e-17 17.4007 514.0234)" class="st14 st1">Raman</text>
<text transform="matrix(6.123234e-17 -1 1 6.123234e-17 17.4007 250.3223)" class="st14 st1">IR</text>
</svg>
